<svg xmlns="http://www.w3.org/2000/svg" width="512" height="512" viewBox="0 0 512 512">
  <g fill="none" fill-rule="evenodd">
    <circle cx="256" cy="256" r="256" fill="#D7EBBA"/>
    <g fill="#472836" transform="translate(114 118)">
      <path d="M152.375821,175.099166 C164.418831,163.167628 171.193601,147.078698 171.193601,129.894339 C171.193601,94.6630066 142.396738,66 107,66 C71.6032625,66 42.8063987,94.6630066 42.8063987,129.894339 C42.8063987,147.079405 49.5804585,163.167628 61.6241794,175.099166 C22.3370498,188.033432 0,217.775591 0,257.71203 L0,279 L214,279 L214,257.71203 C214,217.775591 191.66295,188.033432 152.375821,175.099166 L152.375821,175.099166 Z M205.468439,270.508306 L8.53156146,270.508306 L8.53156146,257.71203 C8.53156146,237.830143 14.4126512,220.958561 26.011309,207.566452 C36.7219734,195.199714 52.3859203,186.046375 71.3089236,181.097841 L79.6535017,178.915475 L72.8453156,173.640718 C59.1770432,163.05299 51.3379601,147.107711 51.3379601,129.894339 C51.3379601,99.3454684 76.3077076,74.4916944 107,74.4916944 C137.692292,74.4916944 162.66204,99.3454684 162.66204,129.894339 C162.66204,147.107711 154.822957,163.052282 141.154684,173.640718 L134.346498,178.915475 L142.691076,181.097841 C161.61408,186.047083 177.277316,195.199714 187.988691,207.566452 C199.587349,220.958561 205.468439,237.830143 205.468439,257.71203 L205.468439,270.508306 L205.468439,270.508306 Z"/>
      <path d="M224.436287,109.331833 C236.46748,97.3741405 243.235604,81.2516078 243.235604,64.0306013 C243.235604,28.724134 214.466996,0 179.10499,0 C148.057849,0 121.518766,22.105634 116,52.5636405 L124.387529,54.0783856 C129.17117,27.6738824 152.183073,8.50980392 179.10499,8.50980392 C209.767166,8.50980392 234.712413,33.4165817 234.712413,64.0306013 C234.712413,81.280683 226.881022,97.2592582 213.226161,107.870275 L206.424655,113.156281 L214.761046,115.343301 C233.665481,120.303098 249.313348,129.475248 260.014214,141.868359 C271.601491,155.289029 277.47681,172.196592 277.47681,192.120879 L277.47681,208.490196 L218.524744,208.490196 L218.524744,217 L286,217 L286,192.120879 C286,152.099271 263.684868,122.293683 224.436287,109.331833 L224.436287,109.331833 Z"/>
    </g>
  </g>
</svg>
