<svg xmlns="http://www.w3.org/2000/svg" width="512" height="512" viewBox="0 0 512 512">
  <g fill="none" fill-rule="evenodd">
    <g fill="#FFFFFF" transform="translate(2 8)">
      <path d="M271.285924,312.149213 C292.726983,290.806884 304.788608,262.028093 304.788608,231.289874 C304.788608,168.270449 253.519425,117 190.5,117 C127.480575,117 76.211392,168.270449 76.211392,231.289874 C76.211392,262.029359 88.2717508,290.806884 109.714076,312.149213 C39.768299,335.285153 0,388.485917 0,459.921518 L0,498 L381,498 L381,459.921518 C381,388.485917 341.231701,335.285153 271.285924,312.149213 L271.285924,312.149213 Z M365.810631,482.810631 L15.1893688,482.810631 L15.1893688,459.921518 C15.1893688,424.358143 25.659907,394.179399 46.3098538,370.224498 C65.3788405,348.103714 93.2665216,331.730841 126.956542,322.879236 L141.81301,318.975568 L129.691894,309.540439 C105.357259,290.601827 91.4007608,262.07999 91.4007608,231.289874 C91.4007608,176.64612 135.856246,132.189369 190.5,132.189369 C245.143754,132.189369 289.599239,176.64612 289.599239,231.289874 C289.599239,262.07999 275.642741,290.600561 251.308106,309.540439 L239.18699,318.975568 L254.043458,322.879236 C287.733478,331.732106 315.619894,348.103714 334.690146,370.224498 C355.340093,394.179399 365.810631,424.358143 365.810631,459.921518 L365.810631,482.810631 L365.810631,482.810631 Z"/>
      <path d="M400.271735,194.9835 C421.715568,173.658029 433.778752,144.904941 433.778752,114.192824 C433.778752,51.2269118 382.502939,0 319.475364,0 C264.138402,0 216.836388,39.4234118 207,93.7425294 L221.949538,96.4439412 C230.475673,49.3538824 271.491007,15.1764706 319.475364,15.1764706 C374.126185,15.1764706 418.587419,59.5954706 418.587419,114.192824 C418.587419,144.956794 404.629116,173.453147 380.291334,192.376941 L368.168651,201.804059 L383.02704,205.704412 C416.721417,214.549765 444.611439,230.907471 463.684157,253.009471 C484.336775,276.944029 494.808667,307.097147 494.808667,342.630324 L494.808667,371.823529 L389.73528,371.823529 L389.73528,387 L510,387 L510,342.630324 C510,271.255382 470.226558,218.099794 400.271735,194.9835 L400.271735,194.9835 Z"/>
    </g>
  </g>
</svg>
