<svg xmlns="http://www.w3.org/2000/svg" width="512" height="512" viewBox="0 0 512 512">
  <g fill="none" fill-rule="evenodd">
    <circle cx="256" cy="256" r="256" fill="#7FB5E0"/>
    <path fill="#092327" d="M504.394761,193.814415 C476.612053,82.4804115 375.938192,0 256,0 C135.367832,0 34.2235729,83.4376537 7.13030906,195.749874 C11.8421994,202.150705 14.6262176,210.057555 14.6262176,218.614502 C14.6262176,230.819425 8.94921834,241.677257 0.100841825,248.744337 C0.0478765357,250.647533 0.0156831239,252.555922 0.00448021227,254.469285 C15.8922319,259.109741 27.5,273.780652 27.5,291.162762 L27.5,332.104651 L11.5024327,332.104651 C43.9081607,436.325513 141.116719,512 256,512 C370.883281,512 468.091839,436.325513 500.497563,332.104652 L482.5,332.104651 L482.5,291.162762 C482.5,273.057471 495.089608,257.898144 511.991921,253.944585 C511.982258,252.715917 511.963941,251.489311 511.937025,250.264825 C501.934623,243.293263 495.377029,231.731905 495.377029,218.614502 C495.377029,209.173155 498.766269,200.523231 504.394761,193.814415 Z M306.5,291.610437 C306.5,271.835761 291.476799,255.570019 272.219699,253.589955 C284.89867,247.256995 293.626218,234.195062 293.626218,219.062176 C293.626218,197.735909 276.333465,180.447674 255.001623,180.447674 C233.669782,180.447674 216.377029,197.735909 216.377029,219.062176 C216.377029,234.195062 225.104577,247.256995 237.780301,253.589955 C218.523201,255.570019 203.5,271.832515 203.5,291.610437 L203.5,332.552326 L306.5,332.552326 L306.5,291.610437 Z M167,291.162762 C167,271.388087 151.976799,255.122345 132.719699,253.14228 C145.39867,246.80932 154.126218,233.747387 154.126218,218.614502 C154.126218,197.288234 136.833465,180 115.501623,180 C94.1697822,180 76.8770293,197.288234 76.8770293,218.614502 C76.8770293,233.747387 85.6045771,246.80932 98.2803014,253.14228 C79.0232008,255.122345 64,271.384841 64,291.162762 L64,332.104651 L167,332.104651 L167,291.162762 Z M446,291.162762 C446,271.388087 430.976799,255.122345 411.719699,253.14228 C424.39867,246.80932 433.126218,233.747387 433.126218,218.614502 C433.126218,197.288234 415.833465,180 394.501623,180 C373.169782,180 355.877029,197.288234 355.877029,218.614502 C355.877029,233.747387 364.604577,246.80932 377.280301,253.14228 C358.023201,255.122345 343,271.384841 343,291.162762 L343,332.104651 L446,332.104651 L446,291.162762 Z"/>
  </g>
</svg>
